# xmcd CD database file
#
# Track frame offsets:
#	150
#	40240
#	71580
#	113375
#	156087
#	185472
#
# Disc length: 2675 seconds
#
# Revision: 0
# Processed by: cddbd v1.5.1PL2 Copyright (c) Steve Scherf et al.
# Submitted via: CDex 1.60beta1
#
DISCID=440a7106
DTITLE=Thelonious Monk - Live in Stockholm 1961 Disc 2
DYEAR=1961
DGENRE=Jazz
TTITLE0=Well, You Needn't
TTITLE1='Round Midnight
TTITLE2=Bemsha Swing
TTITLE3=Blue Monk
TTITLE4=Epistrophy
TTITLE5=Body And Soul
EXTD=YEAR: 1961
EXTT0=
EXTT1=
EXTT2=
EXTT3=
EXTT4=
EXTT5=
PLAYORDER=
